<svg width="25" height="25" viewBox="0 0 25 25" fill="none" xmlns="http://www.w3.org/2000/svg">
<path d="M8.2539 20.1193L15.7154 12.6578L8.2539 5.19621C8.07586 5.01817 7.93463 4.8068 7.83827 4.57418C7.74192 4.34156 7.69232 4.09223 7.69232 3.84044C7.69232 3.58865 7.74192 3.33933 7.83827 3.10671C7.93463 2.87408 8.07586 2.66272 8.2539 2.48467C8.43194 2.30663 8.64331 2.1654 8.87593 2.06904C9.10856 1.97269 9.35788 1.9231 9.60967 1.9231C9.86146 1.9231 10.1108 1.97269 10.3434 2.06904C10.576 2.1654 10.7874 2.30663 10.9654 2.48467L19.7924 11.3116C20.5424 12.0616 20.5424 13.2731 19.7924 14.0231L10.9654 22.8501C10.7875 23.0283 10.5762 23.1698 10.3436 23.2663C10.1109 23.3628 9.86153 23.4124 9.60967 23.4124C9.35781 23.4124 9.10842 23.3628 8.87578 23.2663C8.64314 23.1698 8.43181 23.0283 8.2539 22.8501C7.52313 22.1001 7.5039 20.8693 8.2539 20.1193Z" fill="white"/>
</svg>
