<svg width="100" height="88" viewBox="0 0 100 88" fill="none" xmlns="http://www.w3.org/2000/svg">
<path d="M83.2287 54.7269C83.3025 53.5056 83.3148 52.2351 83.2621 50.914C82.9785 43.859 80.0535 37.1605 76.9568 30.0685C76.4244 28.849 75.8818 27.6025 75.3436 26.3373H75.7021C77.9178 26.3373 79.7203 24.5347 79.7203 22.3191V13.1287C79.7203 10.9131 77.9178 9.11053 75.7021 9.11053H61.9004C57.8228 9.11053 54.4004 11.9596 53.5131 15.7709H46.8193C45.7408 15.7709 44.8662 16.6453 44.8662 17.724C44.8662 18.8027 45.7408 19.6771 46.8193 19.6771H53.5131C54.2307 22.7592 56.6059 25.2105 59.6455 26.0359L63.8535 44.7992C65.1836 50.7187 62.8713 54.2172 60.6973 56.1097C57.3264 59.0437 52.0014 59.9771 47.7467 58.3793C44.0564 56.9933 41.7109 53.9398 41.1422 49.7812L40.9805 48.5998H42.634C43.7125 48.5998 44.5871 47.7254 44.5871 46.6467V41.2486C44.5871 38.2408 42.5906 35.6912 39.8535 34.8535V2.94725C39.8535 1.86854 38.9789 0.994125 37.9004 0.994125H4.33359C3.25508 0.994125 2.38047 1.86854 2.38047 2.94725V10.9586C2.38047 12.0373 3.25508 12.9117 4.33359 12.9117C5.41211 12.9117 6.28672 12.0373 6.28672 10.9586V4.90038H13.1707V16.6555C13.1707 17.3633 13.5537 18.0158 14.1717 18.3607C14.7898 18.7058 15.5461 18.6894 16.1488 18.318L21.1143 15.257L26.0795 18.318C26.3932 18.5115 26.7486 18.6086 27.1045 18.6086C27.4322 18.6086 27.7602 18.5262 28.0566 18.3607C28.6746 18.0156 29.0576 17.3633 29.0576 16.6555V4.90038H35.9471V34.5617H6.28672V28.498C6.28672 27.4193 5.41211 26.5449 4.33359 26.5449C3.25508 26.5449 2.38047 27.4193 2.38047 28.498V36.5148V46.0166C0.821875 48.2775 0 50.9019 0 53.65V69.0303C0 72.1953 2.57246 74.7703 5.73438 74.7703H10.4076C11.3625 81.6726 17.2977 87.0058 24.4584 87.0058C31.6219 87.0058 37.5592 81.6726 38.5146 74.7703H67.8082C68.7631 81.6726 74.6982 87.0058 81.8588 87.0058C89.0223 87.0058 94.9596 81.6726 95.915 74.7703H98.0469C99.1254 74.7703 100 73.8959 100 72.8172C100 63.2748 92.5943 55.4297 83.2287 54.7269ZM25.1514 13.1568L22.1393 11.3C21.5105 10.9125 20.718 10.9127 20.0893 11.3L17.077 13.157V4.90038H25.1514V13.1568ZM71.3043 13.0168H75.7023C75.7588 13.0168 75.8143 13.0722 75.8143 13.1287V22.3193C75.8143 22.3758 75.7588 22.4312 75.7023 22.4312H71.3049C70.0594 19.3297 70.0592 16.1146 71.3043 13.0168ZM61.4906 22.4123C61.4564 22.4084 61.4221 22.4049 61.3875 22.4027C59.0799 22.1515 57.2691 20.226 57.1969 17.8697C57.2004 17.8215 57.2043 17.7732 57.2043 17.724C57.2043 17.6748 57.2004 17.6265 57.1969 17.5783C57.2742 15.05 59.3537 13.0168 61.9004 13.0168H67.1617C66.2104 16.1314 66.2105 19.3144 67.1625 22.4312H61.9004C61.7621 22.4312 61.6258 22.424 61.4906 22.4123ZM6.28672 38.4678H37.9004C39.4336 38.4678 40.6809 39.715 40.6809 41.2482V44.6931H6.28672V38.4678ZM24.4584 83.0996C19.4566 83.0996 15.2799 79.509 14.3646 74.7703H34.5576C33.6418 79.509 29.4627 83.0996 24.4584 83.0996ZM10.366 70.864C11.3209 63.9359 17.2746 58.5816 24.4584 58.5816C31.6447 58.5816 37.6008 63.9357 38.5561 70.864H10.366ZM61.9225 70.864H42.4941C41.5168 61.7758 33.8016 54.6754 24.4584 54.6754C15.1178 54.6754 7.40488 61.7758 6.42793 70.864H5.73457C4.72656 70.864 3.90645 70.0414 3.90645 69.0303V53.65C3.90645 51.8486 4.40625 50.1207 5.35664 48.5996H37.0379L37.2719 50.3105C38.0332 55.8758 41.3506 60.1494 46.3734 62.0359C48.2256 62.7316 50.2027 63.0685 52.1828 63.0685C56.217 63.0685 60.26 61.6691 63.2621 59.056C67.4684 55.3945 69.032 50.0271 67.6652 43.9435L63.7166 26.3375H71.1064C71.8602 28.1521 72.6287 29.9174 73.3773 31.6318C76.4508 38.6705 79.1051 44.7494 79.3592 51.0703C79.6246 57.7258 78.1125 62.8142 74.8643 66.1945C71.8869 69.2929 67.5326 70.864 61.9225 70.864ZM81.8586 83.0996C76.8568 83.0996 72.6801 79.509 71.7648 74.7703H91.9578C91.0422 79.509 86.8631 83.0996 81.8586 83.0996ZM75.4295 70.864C76.2389 70.274 76.9906 69.6191 77.6807 68.901C80.2508 66.2263 81.9436 62.7812 82.7484 58.6125C89.5318 59.0334 95.0449 64.2238 95.9602 70.8638H75.4295V70.864Z" fill="white"/>
</svg>
