<svg width="130" height="100" viewBox="0 0 130 100" fill="none" xmlns="http://www.w3.org/2000/svg">
<g clip-path="url(#clip0)">
<path d="M45.0327 43.5081L45.6507 43.0925C46.0088 42.8517 46.1038 42.3662 45.8631 42.0081C45.6223 41.6502 45.1368 41.5551 44.7788 41.7958L44.1607 42.2114L43.7454 41.5938C43.6298 41.4219 43.4506 41.3029 43.2472 41.263L42.404 41.0979L39.2549 36.4151C39.1392 36.2432 38.96 36.1242 38.7567 36.0843L10.4493 30.5409C8.9268 30.2428 7.44561 31.2388 7.14745 32.7613L4.33383 47.1289C4.03569 48.6514 5.03177 50.1326 6.55424 50.4308L13.2335 51.7388L7.86236 55.3508C7.23874 55.7702 6.81575 56.4073 6.67132 57.1449C6.5269 57.8824 6.67832 58.632 7.09767 59.2557L15.2676 71.4046C15.6869 72.0282 16.3241 72.4512 17.0616 72.5956C17.7992 72.7401 18.5488 72.5887 19.1724 72.1693L28.2715 66.0504C28.6296 65.8097 28.7247 65.3242 28.4839 64.9661C28.2431 64.6082 27.7576 64.5131 27.3996 64.7538L18.3004 70.8726C18.0232 71.0592 17.6898 71.1264 17.3619 71.0622C17.034 70.998 16.7506 70.81 16.5642 70.5326L8.39425 58.3837C8.20781 58.1065 8.14046 57.7731 8.20468 57.4452C8.26891 57.1172 8.45701 56.8339 8.73425 56.6475L32.4019 40.7315L42.6295 42.7344L42.8642 43.0835L40.7442 44.5092C40.4721 44.3064 40.1518 44.1599 39.7972 44.0904C38.5289 43.842 37.2951 44.6718 37.0467 45.94C36.7984 47.2083 37.6281 48.4421 38.8963 48.6905C40.1646 48.9388 41.3984 48.1091 41.6468 46.8408C41.7163 46.4862 41.7013 46.1342 41.6161 45.8058L43.7361 44.3801L43.9709 44.7293L41.9681 54.9567L33.2341 60.8302C32.8761 61.071 32.781 61.5564 33.0217 61.9145C33.2625 62.2725 33.748 62.3675 34.106 62.1269L43.1085 56.0729C43.2805 55.9572 43.3995 55.7781 43.4393 55.5748L45.5666 44.7118C45.6064 44.5085 45.5637 44.2977 45.4482 44.1257L45.0327 43.5081ZM18.7621 46.4533C18.3392 46.3704 18.0625 45.9591 18.1454 45.5362C18.2282 45.1132 18.6396 44.8365 19.0625 44.9194C19.4854 45.0022 19.762 45.4136 19.6792 45.8365C19.5964 46.2594 19.185 46.5361 18.7621 46.4533ZM32.3846 39.1359C32.1813 39.0961 31.9704 39.1387 31.7985 39.2543L21.1365 46.4242C21.1673 46.3311 21.1933 46.2354 21.2126 46.1367C21.461 44.8684 20.6312 43.6343 19.3628 43.3859C18.0945 43.1376 16.8605 43.9674 16.6121 45.2358C16.3637 46.5042 17.1935 47.7382 18.4619 47.9866C18.5606 48.0059 18.659 48.0179 18.7568 48.0245L15.0673 50.5056L6.85453 48.8973C6.17756 48.7648 5.73463 48.1061 5.86721 47.4291L8.6808 33.0616C8.81338 32.3846 9.47202 31.9417 10.149 32.0743L38.1388 37.5555L40.2355 40.6733L32.3846 39.1359ZM39.1967 47.157C38.7739 47.0742 38.4973 46.6629 38.5801 46.2401C38.6629 45.8174 39.0742 45.5408 39.4969 45.6236C39.6719 45.6579 39.8212 45.749 39.931 45.8733C39.9461 45.9038 39.9627 45.934 39.9822 45.9629C40.0016 45.9919 40.0233 46.0186 40.0459 46.0441C40.1196 46.1927 40.1477 46.3654 40.1134 46.5403C40.0307 46.9632 39.6194 47.2397 39.1967 47.157Z" fill="white"/>
<path d="M28.7452 57.6746C28.9485 57.7144 29.1594 57.6718 29.3313 57.5562L31.4058 56.1611C31.7638 55.9204 31.8589 55.4349 31.6181 55.0768C31.3773 54.7189 30.8919 54.6238 30.5339 54.8645L29.1077 55.8236L26.0559 51.2857C25.8152 50.9277 25.3297 50.8326 24.9717 51.0733C24.6137 51.3141 24.5186 51.7995 24.7593 52.1576L28.247 57.3439C28.3627 57.5158 28.5419 57.6348 28.7452 57.6746Z" fill="white"/>
<path d="M36.0265 52.1124C35.7857 51.7544 35.3003 51.6594 34.9422 51.9L33.7753 52.6848L32.9034 51.3883L34.0703 50.6036C34.4283 50.3628 34.5234 49.8773 34.2826 49.5192C34.0418 49.1613 33.5564 49.0662 33.1983 49.3069L32.0314 50.0916L31.1595 48.7951L32.3264 48.0103C32.6844 47.7696 32.7796 47.2841 32.5387 46.926C32.2979 46.5682 31.8125 46.473 31.4545 46.7137L29.6393 47.9344C29.4674 48.05 29.3484 48.2292 29.3086 48.4325C29.2688 48.6359 29.3114 48.8466 29.427 49.0186L32.9147 54.2049C33.035 54.3838 33.2166 54.4972 33.4128 54.5356C33.609 54.574 33.82 54.5376 33.9989 54.4172L35.8141 53.1965C36.1722 52.9559 36.2673 52.4704 36.0265 52.1124Z" fill="white"/>
<path d="M25.8204 59.2667C26.1599 59.5329 26.6511 59.4732 26.9172 59.1336C27.1833 58.7939 27.1237 58.3029 26.784 58.0368L21.6108 53.984C21.3444 53.7752 20.9739 53.7618 20.693 53.9507C20.4122 54.1395 20.2849 54.4878 20.3777 54.8132L22.1799 61.133C22.2632 61.4254 22.5024 61.6311 22.7816 61.6857C22.8987 61.7086 23.0228 61.705 23.1454 61.67C23.5603 61.5517 23.8007 61.1194 23.6825 60.7045L23.5378 60.197L25.4051 58.9413L25.8204 59.2667ZM23.0872 58.6171L22.5395 56.6965L24.1118 57.9282L23.0872 58.6171Z" fill="white"/>
<path d="M17.3089 63.7581C16.9509 63.9989 16.8557 64.4843 17.0965 64.8424C17.217 65.0214 17.3985 65.1347 17.5947 65.1732C17.7909 65.2116 18.0018 65.1751 18.1808 65.0548L19.4774 64.1829C20.5498 63.4617 20.8356 62.0025 20.1144 60.9301C19.4289 59.9108 18.0771 59.6029 17.0239 60.194C16.9917 60.2097 16.96 60.2269 16.9294 60.2475L16.8616 60.2931C16.6884 60.4095 16.4803 60.4516 16.2755 60.4115C16.0707 60.3714 15.8938 60.2539 15.7774 60.0808C15.537 59.7233 15.6322 59.2369 15.9897 58.9964L17.2863 58.1245C17.6443 57.8838 17.7394 57.3983 17.4986 57.0402C17.2578 56.6824 16.7724 56.5872 16.4144 56.8279L15.1178 57.6998C14.0454 58.421 13.7596 59.8802 14.4807 60.9526C14.8302 61.4721 15.3608 61.8244 15.9752 61.9447C16.5887 62.0649 17.2123 61.9393 17.7315 61.5908C17.7322 61.5904 17.7329 61.5901 17.7335 61.5896C18.0909 61.3492 18.5774 61.4444 18.8178 61.802C18.9342 61.9752 18.9763 62.1832 18.9362 62.388C18.8961 62.5928 18.7786 62.7697 18.6055 62.8861L17.3089 63.7581Z" fill="white"/>
<path d="M19.8541 37.5219C19.5262 37.2417 19.033 37.2801 18.7527 37.6081L12.0922 45.3993C11.8118 45.7273 11.8504 46.2204 12.1784 46.5008C12.2843 46.5914 12.4074 46.6487 12.5351 46.6737C12.8027 46.7261 13.09 46.6366 13.2798 46.4146L19.9403 38.6234C20.2207 38.2954 20.1821 37.8022 19.8541 37.5219Z" fill="white"/>
<path d="M15.933 38.7794C16.1814 37.511 15.3516 36.277 14.0832 36.0286C12.8148 35.7802 11.5808 36.61 11.3324 37.8784C11.084 39.1468 11.9138 40.3809 13.1822 40.6293C14.4506 40.8776 15.6846 40.0478 15.933 38.7794ZM12.8657 38.1787C12.9486 37.7558 13.3599 37.4791 13.7828 37.562C14.2058 37.6448 14.4824 38.0562 14.3996 38.4791C14.3167 38.902 13.9054 39.1787 13.4825 39.0959C13.0596 39.0131 12.7829 38.6017 12.8657 38.1787Z" fill="white"/>
<path d="M30.9022 62.6732C30.6998 62.6336 30.4867 62.677 30.3162 62.7918C30.1457 62.9064 30.0249 63.0881 29.9854 63.2898C29.9459 63.4915 29.9892 63.7054 30.1039 63.8758C30.2186 64.0463 30.3996 64.167 30.602 64.2066C30.8036 64.2461 31.0175 64.2029 31.188 64.0881C31.3585 63.9735 31.4793 63.7918 31.5188 63.5901C31.5583 63.3884 31.515 63.1745 31.4003 63.0041C31.2856 62.8336 31.1039 62.7127 30.9022 62.6732Z" fill="white"/>
</g>
<g clip-path="url(#clip1)">
<path d="M60.8326 41.4069C60.2643 40.8241 59.3304 40.8118 58.7468 41.3802C58.1639 41.9494 58.1517 42.8832 58.7208 43.4661L62.0526 46.8841C64.4002 49.2927 68.2042 49.3407 70.6166 47.0931L73.647 44.6639L76.6774 47.0931C79.086 49.3369 82.8892 49.2965 85.2406 46.8841L88.5731 43.4661C89.1415 42.8825 89.1293 41.9486 88.5464 41.3802C87.9628 40.8111 87.0289 40.8241 86.4606 41.4069L83.1288 44.8249C82.5253 45.4444 81.7166 45.7847 80.8522 45.7847C79.4949 45.7847 79.3431 45.449 75.1217 42.0661V35.4881H75.8755C76.6903 35.4881 77.3503 34.8273 77.3503 34.0133C77.3503 33.1985 76.6903 32.5378 75.8755 32.5378H71.4177C70.6029 32.5378 69.9429 33.1985 69.9429 34.0133C69.9429 34.8273 70.6029 35.4881 71.4177 35.4881H72.1715V42.0661C72.0929 42.1287 68.7039 44.8409 68.6314 44.9104C67.3848 46.0975 65.3927 46.0845 64.1644 44.8249L60.8326 41.4069Z" fill="white"/>
<path d="M56.4717 33.9149C57.2865 33.9149 57.9464 33.2549 57.9464 32.4401C57.9464 30.9394 59.1671 29.7195 60.6671 29.7195C62.167 29.7195 63.3877 30.9394 63.3877 32.4401C63.3877 33.2549 64.0477 33.9149 64.8625 33.9149C67.918 33.9149 66.0946 26.7692 60.6671 26.7692C55.2449 26.7692 53.4046 33.9149 56.4717 33.9149Z" fill="white"/>
<path d="M82.4307 33.9149C83.2455 33.9149 83.9062 33.2549 83.9062 32.4401C83.9062 30.9394 85.1262 29.7195 86.6261 29.7195C88.1268 29.7195 89.3468 30.9394 89.3468 32.4401C89.3468 33.2549 90.0067 33.9149 90.8215 33.9149C93.8771 33.9149 92.0544 26.7692 86.6261 26.7692C81.2047 26.7692 79.3637 33.9149 82.4307 33.9149Z" fill="white"/>
<path d="M116.304 59.4825C115.915 58.7668 115.018 58.5052 114.304 58.8943C113.588 59.2856 113.325 60.1806 113.717 60.897C115.231 63.6703 114.949 65.348 114.949 72.1381C114.949 73.0788 114.186 73.8685 113.217 73.8685C112.22 73.8685 111.347 73.8685 110.352 73.8685V66.2658C110.352 65.451 109.691 64.7903 108.877 64.7903C108.062 64.7903 107.402 65.451 107.402 66.2658V73.8685H102.204V66.2658C102.204 65.451 101.543 64.7903 100.729 64.7903C99.9142 64.7903 99.2535 65.451 99.2535 66.2658V73.8685C98.1419 73.8685 97.7658 73.8685 97.6544 73.8685C97.6185 73.8685 97.6086 73.8685 97.6109 73.8685C97.5132 73.8685 97.2126 73.8685 96.3887 73.8685C95.4365 73.8685 94.6575 73.0971 94.6575 72.1381C94.6575 72.0511 94.6568 65.6562 94.6598 65.5692C94.7728 57.6613 103.58 52.9159 110.231 57.1677C110.918 57.6064 111.831 57.4058 112.269 56.7176C112.707 56.0309 112.507 55.1208 111.821 54.6821C107.026 51.6189 100.693 51.9759 96.2467 55.8211C96.0186 55.4687 95.8081 55.1543 95.6219 54.8804C101.893 47.3754 103.729 37.4396 101.112 28.5323V5.93405C101.112 0.815489 95.0634 -1.88837 91.248 1.5151L82.4688 9.34973C76.7346 7.48434 70.5159 7.50265 64.8228 9.34363L56.0498 1.5151C52.2297 -1.89218 46.185 0.821593 46.185 5.93405V28.4926C45.4235 31.0866 45.0306 33.8027 45.0306 36.5737C45.0306 43.2876 47.3553 49.4704 51.2432 54.3578C42.8494 66.2192 38.509 82.4363 45.1565 95.9868C46.352 98.4199 48.8835 99.993 51.6087 99.993H94.4966C96.2094 99.993 97.8436 99.3712 99.12 98.3054C105.612 102.701 114.454 98.0353 114.454 90.1595V76.6509C116.438 76.1085 117.899 74.2911 117.899 72.1381C117.899 65.5623 118.263 63.0668 116.304 59.4825ZM93.2125 3.71771C95.1321 2.00339 98.1625 3.35913 98.1625 5.93405V21.8284C95.1985 16.9158 90.7994 12.9622 85.5503 10.5514L93.2125 3.71771ZM49.0383 29.248C49.0422 29.2419 49.0444 29.2342 49.0444 29.2266C49.0582 29.1793 49.0719 29.1343 49.0879 29.0885V29.087C50.2575 25.2303 52.3365 21.6826 55.2121 18.7148C55.7782 18.1312 55.7621 17.1966 55.1785 16.6305C54.5925 16.0636 53.6602 16.0773 53.0918 16.664C51.566 18.2387 50.2423 19.9599 49.1352 21.7948V5.93405C49.1352 3.36371 52.1603 1.99957 54.0852 3.71771L61.739 10.5453C60.4016 11.1571 59.1053 11.8773 57.8648 12.699C57.1865 13.1476 56.9996 14.0639 57.4498 14.7422C57.8999 15.4204 58.8147 15.6074 59.4952 15.1572C66.7309 10.3721 75.6352 9.72586 83.1219 12.7204C99.3641 19.1917 104.512 39.6216 93.3621 52.9906C93.3583 52.9967 93.3522 53.0044 93.3461 53.0105C88.1222 59.2628 80.28 62.4824 73.3105 62.2382C56.416 62.0269 44.1723 45.6283 49.0383 29.248ZM94.4966 97.0428H51.6087C50.0004 97.0428 48.5073 96.1188 47.8054 94.6868C42.9646 84.8205 44.4218 73.9776 49.1032 63.9823C51.0662 65.6852 53.204 67.176 55.4814 68.4226C56.1947 68.814 57.0919 68.5523 57.4833 67.839C57.8747 67.1248 57.613 66.2284 56.8974 65.837C54.6925 64.627 52.6257 63.1698 50.742 61.4966C51.6384 59.8052 52.496 58.4014 53.1819 57.3508C63.8714 67.4636 81.8295 68.2319 93.3148 57.3409C93.5169 57.6514 93.7374 57.9978 93.9717 58.3755C92.8524 60.0173 92.0971 61.9254 91.824 63.9846C82.922 70.1865 71.7686 71.4522 62.0571 68.1159C61.2889 67.8527 60.4489 68.2616 60.1834 69.0322C59.9202 69.8035 60.3306 70.6412 61.0997 70.9067C64.6626 72.1305 68.385 72.7843 72.1714 72.8545V75.3821C69.2471 76.0535 67.0582 78.6765 67.0582 81.8015C67.0582 85.4346 70.0138 88.3895 73.647 88.3895C77.2793 88.3895 80.2349 85.4346 80.2349 81.8015C80.2349 78.6765 78.0461 76.0535 75.1217 75.3821V72.7889C81.0551 72.425 86.7153 70.6382 91.708 67.5834V72.1381C91.708 74.1553 92.992 75.8819 94.788 76.5349V90.1595C94.788 92.4682 95.5883 94.5945 96.9273 96.276C96.2254 96.7635 95.3778 97.0428 94.4966 97.0428ZM73.647 78.1638C75.6527 78.1638 77.2847 79.7957 77.2847 81.8015C77.2847 83.808 75.6527 85.44 73.647 85.44C71.6404 85.44 70.0085 83.808 70.0085 81.8015C70.0085 79.7957 71.6404 78.1638 73.647 78.1638ZM111.504 90.1595C111.504 93.9551 108.416 97.0428 104.621 97.0428C100.832 97.0428 97.7375 93.962 97.7375 90.1595V76.818H111.504V90.1595Z" fill="white"/>
</g>
<defs>
<clipPath id="clip0">
<rect width="40" height="40" fill="white" transform="translate(7.68718 30) rotate(11.08)"/>
</clipPath>
<clipPath id="clip1">
<rect width="100" height="100" fill="white" transform="translate(30)"/>
</clipPath>
</defs>
</svg>
