<svg width="80" height="80" viewBox="0 0 80 80" fill="none" xmlns="http://www.w3.org/2000/svg">
<g clip-path="url(#clip0)">
<path d="M79.95 43.6157L79.9464 43.5894C79.2262 38.8507 76.4741 34.6887 72.3951 32.1716C70.3925 30.9356 68.1794 30.1647 65.9058 29.8736C67.5739 28.3019 68.9112 26.3769 69.8048 24.2004C71.6254 19.7662 71.4057 14.7814 69.206 10.5309L69.1914 10.5022C68.2947 8.77678 66.3898 7.82341 64.4489 8.13103L61.5821 8.58513L61.128 5.71892C60.821 3.77861 59.3256 2.26005 57.4079 1.94084L57.3829 1.93657C52.6533 1.15715 47.8455 2.48833 44.1907 5.59014C42.3963 7.11296 40.979 8.97942 40 11.0522C39.0204 8.97942 37.6032 7.11296 35.8094 5.59014C32.1546 2.48894 27.3456 1.15715 22.6166 1.93718L22.5922 1.94084C20.6745 2.26005 19.1791 3.77861 18.8715 5.71892L18.418 8.58513L15.5512 8.13103C13.6109 7.82341 11.7047 8.77678 10.8087 10.5022L10.7971 10.5242C8.59437 14.7814 8.37464 19.7662 10.1947 24.2004C11.0889 26.3769 12.4262 28.3019 14.0943 29.8736C11.8207 30.1647 9.60756 30.9356 7.60499 32.171C3.52601 34.6887 0.773928 38.8507 0.0524922 43.5961C0.0524922 43.5986 0.0506611 43.6108 0.0500506 43.6138C-0.239256 45.5364 0.7428 47.4273 2.49329 48.319L5.07935 49.6374L3.7616 52.2235C2.86988 53.9733 3.18726 56.0803 4.54407 57.4585C4.55384 57.4694 4.56483 57.4798 4.5752 57.4902C7.65138 60.6024 11.8152 62.3291 16.1542 62.3291C16.5643 62.3291 16.9763 62.3138 17.3889 62.2827C19.7351 62.1057 21.9788 61.4282 23.9893 60.3271C23.5633 62.5799 23.6127 64.9231 24.1693 67.2088C25.3028 71.8664 28.4107 75.7702 32.6984 77.9211L32.7167 77.9297V77.9303C34.4556 78.7994 36.5577 78.4503 37.9474 77.0611L40 75.0085L42.052 77.0611C42.9322 77.9407 44.0986 78.4033 45.2771 78.4033C45.9589 78.4033 46.6449 78.2489 47.2828 77.9303L47.3047 77.9193C51.5894 75.7702 54.6967 71.8664 55.8307 67.2094C56.3868 64.9231 56.4362 62.5799 56.0102 60.3277C58.0207 61.4288 60.265 62.1057 62.6111 62.2827C63.0237 62.3138 63.4351 62.3297 63.8453 62.3297C68.1837 62.3297 72.3481 60.6024 75.4243 57.4908L75.4487 57.4664C76.8128 56.0809 77.1302 53.9733 76.2379 52.2235L74.9201 49.6374L77.5062 48.3197C79.2567 47.4273 80.2387 45.5364 79.95 43.6157ZM40.0196 54.5666C40.8814 54.5666 41.5821 55.2673 41.5821 56.1291C41.5821 56.9909 40.8814 57.6916 40.0196 57.6916C39.1584 57.6916 38.4571 56.9909 38.4571 56.1291C38.4571 55.2673 39.1584 54.5666 40.0196 54.5666ZM40 41.7773C38.0774 41.7773 36.5131 40.213 36.5131 38.291C36.5131 36.3684 38.0774 34.804 40 34.804C41.922 34.804 43.4864 36.3684 43.4864 38.291C43.4864 40.213 41.9227 41.7773 40 41.7773ZM13.086 23.0132C11.6144 19.4299 11.792 15.4009 13.573 11.9598C13.5761 11.9543 13.5785 11.9488 13.5816 11.9433C13.8574 11.4123 14.4525 11.1211 15.0623 11.2176L19.4721 11.9164C19.8816 11.9811 20.3003 11.881 20.6348 11.6375C20.9705 11.3934 21.1951 11.0272 21.2598 10.6176L21.958 6.20781C22.0551 5.59746 22.5159 5.122 23.1055 5.02373L23.125 5.02068C26.9477 4.39018 30.8338 5.46623 33.7873 7.97295C36.7408 10.4797 38.4351 14.1387 38.4351 18.0126V20.4498C38.4351 20.4827 38.4381 20.5145 38.44 20.5468V20.7464C38.44 21.6094 39.1394 22.3089 40.0025 22.3089C40.8649 22.3089 41.565 21.6094 41.565 20.7464V18.0132C41.565 14.1393 43.2587 10.4797 46.2128 7.97295C49.1663 5.46623 53.0524 4.39018 56.8751 5.02068C56.8842 5.0219 56.8848 5.02251 56.8946 5.02373C57.4836 5.122 57.945 5.59746 58.0414 6.20781L58.7397 10.6176C58.805 11.0272 59.0296 11.394 59.3647 11.6375C59.7004 11.881 60.1185 11.9811 60.5274 11.9164L64.9378 11.2176C65.5469 11.1211 66.1426 11.4123 66.4179 11.9433C66.421 11.9488 66.424 11.9549 66.4271 11.9604C68.2081 15.4015 68.3851 19.4299 66.9141 23.0132C65.4426 26.5972 62.486 29.3389 58.8019 30.5364L45.6232 34.8187C45.448 34.5361 45.2521 34.2681 45.0379 34.0154L49.1565 28.3465C49.5783 28.4698 50.0153 28.5363 50.459 28.5363C50.7056 28.5363 50.954 28.5168 51.2024 28.4777C52.439 28.2818 53.5254 27.6159 54.2615 26.6033C54.9976 25.5901 55.2949 24.3511 55.0989 23.1146C54.903 21.878 54.2371 20.7916 53.2245 20.0555C52.2114 19.32 50.973 19.0222 49.7358 19.2181C48.4992 19.414 47.4128 20.0799 46.6767 21.0925C45.9412 22.1056 45.6434 23.3447 45.8393 24.5812C45.9522 25.2911 46.2195 25.9509 46.6187 26.5234L42.5116 32.1765C41.7365 31.8566 40.8887 31.6796 40 31.6796C39.1114 31.6796 38.2636 31.8566 37.4891 32.1765L33.3741 26.513C33.7598 25.9478 34.0186 25.3002 34.1291 24.6044C34.325 23.3679 34.0271 22.1288 33.291 21.1157C31.7719 19.0246 28.8349 18.5601 26.7438 20.0793C24.6527 21.5978 24.1876 24.5355 25.7068 26.6265C26.623 27.8869 28.0542 28.5565 29.5056 28.5565C29.9573 28.5565 30.4108 28.4893 30.8515 28.3569L34.9628 34.0154C34.7486 34.2675 34.5526 34.5355 34.3775 34.8181L21.1988 30.5358C17.5141 29.3389 14.5569 26.5972 13.086 23.0132ZM49.5502 25.1116C49.2127 24.8663 48.9911 24.5043 48.9258 24.0923C48.8605 23.6797 48.9594 23.2671 49.2048 22.9296C49.4501 22.5915 49.8121 22.3699 50.2247 22.3046C50.3071 22.2912 50.3901 22.2851 50.4719 22.2851C50.7996 22.2851 51.1176 22.3876 51.3868 22.5836C51.7249 22.8289 51.9465 23.1909 52.0118 23.6035C52.0771 24.0154 51.9782 24.428 51.7328 24.7662C51.4875 25.1037 51.1255 25.3253 50.7129 25.3906C50.3016 25.4565 49.8877 25.357 49.5502 25.1116ZM28.2343 24.7894C27.7283 24.0923 27.8833 23.1133 28.5804 22.6067C29.2774 22.1002 30.2564 22.2558 30.763 22.9522C31.0083 23.2903 31.1072 23.7029 31.0419 24.1149C30.9766 24.5275 30.755 24.8895 30.4169 25.1348C29.7205 25.6414 28.7409 25.4864 28.2343 24.7894ZM17.1533 59.1668C13.2916 59.4586 9.51417 58.045 6.792 55.288C6.78468 55.2807 6.77674 55.2728 6.76881 55.2655L6.77796 55.274C6.35926 54.8486 6.26588 54.1925 6.54603 53.6419L8.57301 49.6643C8.96485 48.8952 8.65968 47.9541 7.89063 47.5622L3.91236 45.5352C3.36182 45.2551 3.05176 44.6691 3.14087 44.0765C3.14087 44.0747 3.14332 44.0606 3.14393 44.0588C3.72559 40.2288 5.94971 36.8652 9.24684 34.8309C12.5427 32.796 16.5466 32.3156 20.2313 33.5131L33.4095 37.7947C33.3973 37.9589 33.3887 38.1237 33.3887 38.291C33.3887 38.4588 33.3973 38.6248 33.4095 38.7896L26.7511 40.9527C26.333 40.4119 25.7965 39.9652 25.1691 39.6459C24.054 39.0771 22.7838 38.9776 21.593 39.364C20.4022 39.7509 19.433 40.5786 18.8648 41.6943C18.2965 42.8094 18.1964 44.0795 18.5834 45.2703C18.9704 46.4611 19.7974 47.4304 20.9131 47.9986C21.5821 48.3398 22.3065 48.5119 23.0365 48.5119C23.5236 48.5119 24.0131 48.435 24.4898 48.28C25.6806 47.893 26.6492 47.066 27.218 45.9503C27.544 45.31 27.7155 44.6191 27.7295 43.9208L34.3763 41.7614C34.5508 42.044 34.7473 42.312 34.9616 42.564L26.8152 53.7762C24.538 56.9104 21.0163 58.8751 17.1533 59.1668ZM24.433 44.5312C24.2432 44.9029 23.9209 45.1788 23.5236 45.3082C23.1262 45.437 22.7033 45.4034 22.3316 45.2142C21.9599 45.0244 21.6834 44.7015 21.5546 44.3048C21.4258 43.908 21.4594 43.4844 21.6486 43.1127C21.8384 42.741 22.1613 42.4646 22.558 42.3358C22.7167 42.2845 22.8803 42.2589 23.0426 42.2589C23.2855 42.2589 23.5272 42.3162 23.75 42.4298C24.1217 42.6196 24.3976 42.9425 24.527 43.3392C24.6558 43.7359 24.6222 44.1595 24.433 44.5312ZM52.7942 66.4703C51.8781 70.2325 49.3683 73.3868 45.8991 75.1281C45.8948 75.13 45.8899 75.1324 45.8857 75.1349C45.351 75.4016 44.6985 75.2874 44.2621 74.851L41.1048 71.6937C40.8118 71.4007 40.4145 71.2365 40 71.2365C39.5856 71.2365 39.1883 71.4007 38.8953 71.6937L35.7379 74.851C35.3009 75.2881 34.6485 75.4016 34.1144 75.1349C34.1053 75.1306 34.0973 75.1263 34.0888 75.122L34.0961 75.1257C30.6336 73.3886 28.122 70.2337 27.2058 66.4703C26.2891 62.7063 27.0697 58.75 29.347 55.6158L37.4909 44.4061C37.7954 44.5318 38.1116 44.635 38.4375 44.7137V51.7169C36.6291 52.3675 35.3321 54.0997 35.3321 56.1291C35.3321 58.7133 37.4347 60.8166 40.0196 60.8166C42.6044 60.8166 44.7071 58.7133 44.7071 56.1291C44.7071 54.0844 43.3912 52.3431 41.5625 51.7034V44.7137C41.8879 44.635 42.204 44.5318 42.5086 44.4061L50.6531 55.6158C52.9297 58.75 53.7104 62.7063 52.7942 66.4703ZM76.0877 45.5352L72.1095 47.5622C71.341 47.9541 71.0352 48.8952 71.4271 49.6637L73.4541 53.6419C73.733 54.19 73.642 54.8425 73.2178 55.2777C73.2148 55.2813 73.2111 55.285 73.2081 55.288C70.4859 58.045 66.7066 59.458 62.8467 59.1668C58.9838 58.8751 55.4621 56.9104 53.1849 53.7762L45.0391 42.564C45.2533 42.312 45.4493 42.0434 45.6244 41.7608L52.2834 43.9251C52.3035 44.6087 52.475 45.285 52.7949 45.9124C53.3631 47.0282 54.3323 47.8552 55.5231 48.2421C55.9998 48.3972 56.4893 48.4741 56.9764 48.4741C57.7057 48.4741 58.4308 48.3013 59.0992 47.9608C60.2149 47.3925 61.0425 46.4233 61.4295 45.2325C61.8165 44.0417 61.7164 42.7716 61.1481 41.6558C60.5793 40.5407 59.6107 39.7131 58.4199 39.3261C57.2291 38.9392 55.9589 39.0393 54.8432 39.6075C54.2029 39.934 53.6585 40.3924 53.2367 40.9484L46.5906 38.789C46.6028 38.6242 46.6114 38.4588 46.6114 38.291C46.6114 38.1237 46.6034 37.9583 46.5906 37.7941L59.7687 33.5125C63.4528 32.3156 67.4567 32.796 70.7539 34.8303C74.0504 36.8652 76.2745 40.2282 76.8549 44.0496L76.8598 44.0783C76.9483 44.6691 76.6383 45.2545 76.0877 45.5352ZM55.4853 43.3013C55.6141 42.9046 55.8899 42.5817 56.2623 42.3919C56.485 42.2784 56.7261 42.221 56.9697 42.221C57.132 42.221 57.295 42.2467 57.4543 42.2985C57.851 42.4273 58.1739 42.7032 58.3631 43.0749C58.5529 43.4466 58.5865 43.8702 58.4571 44.2669C58.3283 44.6643 58.0524 44.9871 57.6807 45.1763C57.309 45.3662 56.8854 45.3991 56.4887 45.2703C56.0914 45.1416 55.7685 44.8657 55.5793 44.4934C55.3895 44.1217 55.3565 43.6981 55.4853 43.3013Z" fill="#B3B3B3"/>
<path d="M40 28.5588C40.4108 28.5588 40.8136 28.3922 41.1042 28.1011C41.3947 27.8087 41.5625 27.4077 41.5625 26.9963C41.5625 26.5856 41.3953 26.1827 41.1042 25.8904C40.8136 25.5999 40.4108 25.4338 40 25.4338C39.5887 25.4338 39.1858 25.5999 38.8953 25.8904C38.6048 26.1827 38.4375 26.5856 38.4375 26.9963C38.4375 27.4077 38.6042 27.8087 38.8953 28.1011C39.1858 28.3922 39.5887 28.5588 40 28.5588Z" fill="#B3B3B3"/>
</g>
<defs>
<clipPath id="clip0">
<rect width="80" height="80" fill="white"/>
</clipPath>
</defs>
</svg>
