<svg width="70" height="70" viewBox="0 0 70 70" fill="none" xmlns="http://www.w3.org/2000/svg">
<g clip-path="url(#clip0)">
<path d="M69.9563 38.1637L69.9531 38.1407C69.3229 33.9943 66.9148 30.3526 63.3457 28.1501C61.5935 27.0686 59.657 26.3941 57.6676 26.1394C59.1272 24.7642 60.2973 23.0798 61.0792 21.1753C62.6723 17.2954 62.48 12.9337 60.5553 9.21454L60.5424 9.18944C59.7579 7.67965 58.0911 6.84546 56.3928 7.11462L53.8843 7.51196L53.487 5.00402C53.2184 3.30625 51.9099 1.97752 50.2319 1.69821L50.21 1.69447C46.0716 1.01247 41.8648 2.17726 38.6669 4.89134C37.0968 6.22381 35.8567 7.85696 35.0001 9.67062C34.1429 7.85696 32.9028 6.22381 31.3332 4.89134C28.1353 2.17779 23.9274 1.01247 19.7895 1.695L19.7682 1.69821C18.0902 1.97752 16.7817 3.30625 16.5126 5.00402L16.1158 7.51196L13.6073 7.11462C11.9095 6.84546 10.2416 7.67965 9.45765 9.18944L9.4475 9.20866C7.52009 12.9337 7.32783 17.2954 8.92039 21.1753C9.70278 23.0798 10.8729 24.7642 12.3325 26.1394C10.3431 26.3941 8.40662 27.0686 6.65438 28.1496C3.08527 30.3526 0.677201 33.9943 0.045944 38.1466C0.045944 38.1487 0.0443418 38.1594 0.0438076 38.1621C-0.209336 39.8444 0.649964 41.4989 2.18164 42.2791L4.44445 43.4327L3.29142 45.6955C2.51116 47.2266 2.78887 49.0702 3.97608 50.2761C3.98462 50.2857 3.99424 50.2948 4.00331 50.3039C6.69497 53.0271 10.3383 54.5379 14.1349 54.5379C14.4938 54.5379 14.8543 54.5245 15.2153 54.4973C17.2683 54.3424 19.2314 53.7496 20.9906 52.7862C20.6179 54.7574 20.6611 56.8076 21.1482 58.8077C22.1399 62.8831 24.8594 66.2989 28.6111 68.1809L28.6271 68.1884V68.189C30.1487 68.9495 31.988 68.644 33.204 67.4285L35.0001 65.6324L36.7956 67.4285C37.5657 68.198 38.5863 68.6029 39.6175 68.6029C40.2141 68.6029 40.8143 68.4677 41.3724 68.189L41.3917 68.1793C45.1407 66.2989 47.8596 62.8831 48.8519 58.8082C49.3384 56.8076 49.3817 54.7574 49.0089 52.7867C50.7681 53.7502 52.7318 54.3424 54.7848 54.4973C55.1458 54.5245 55.5057 54.5384 55.8646 54.5384C59.6607 54.5384 63.3046 53.0271 65.9962 50.3044L66.0176 50.2831C67.2112 49.0707 67.4889 47.2266 66.7082 45.6955L65.5551 43.4327L67.8179 42.2797C69.3496 41.4989 70.2089 39.8444 69.9563 38.1637ZM35.0171 47.7458C35.7712 47.7458 36.3843 48.3588 36.3843 49.1129C36.3843 49.867 35.7712 50.4801 35.0171 50.4801C34.2636 50.4801 33.65 49.867 33.65 49.1129C33.65 48.3588 34.2636 47.7458 35.0171 47.7458ZM35.0001 36.5551C33.3178 36.5551 31.949 35.1863 31.949 33.5046C31.949 31.8223 33.3178 30.4535 35.0001 30.4535C36.6818 30.4535 38.0506 31.8223 38.0506 33.5046C38.0506 35.1863 36.6823 36.5551 35.0001 36.5551ZM11.4502 20.1366C10.1626 17.0011 10.318 13.4758 11.8764 10.4648C11.8791 10.46 11.8812 10.4552 11.8839 10.4503C12.1253 9.98572 12.646 9.73097 13.1795 9.81535L17.0381 10.4268C17.3964 10.4835 17.7628 10.3959 18.0555 10.1828C18.3492 9.96916 18.5457 9.64873 18.6023 9.29037L19.2133 5.4318C19.2982 4.89775 19.7014 4.48172 20.2173 4.39573L20.2344 4.39306C23.5792 3.84138 26.9796 4.78292 29.5639 6.9763C32.1482 9.16968 33.6307 12.3714 33.6307 15.761V17.8935C33.6307 17.9224 33.6334 17.9501 33.635 17.9784V18.1531C33.635 18.9082 34.247 19.5203 35.0022 19.5203C35.7568 19.5203 36.3694 18.9082 36.3694 18.1531V15.7616C36.3694 12.3719 37.8514 9.16968 40.4362 6.9763C43.0205 4.78292 46.4209 3.84138 49.7657 4.39306C49.7737 4.39413 49.7742 4.39466 49.7828 4.39573C50.2981 4.48172 50.7019 4.89775 50.7863 5.4318L51.3972 9.29037C51.4544 9.64873 51.6509 9.9697 51.9441 10.1828C52.2378 10.3959 52.6037 10.4835 52.9615 10.4268L56.8206 9.81535C57.3536 9.73097 57.8748 9.98572 58.1157 10.4503C58.1184 10.4552 58.121 10.4605 58.1237 10.4653C59.6821 13.4763 59.837 17.0011 58.5499 20.1366C57.2623 23.2725 54.6753 25.6715 51.4517 26.7194L39.9203 30.4663C39.7671 30.219 39.5956 29.9846 39.4082 29.7635L43.012 24.8032C43.381 24.911 43.7634 24.9692 44.1517 24.9692C44.3674 24.9692 44.5848 24.9522 44.8022 24.918C45.8842 24.7465 46.8348 24.1639 47.4789 23.2779C48.1229 22.3913 48.383 21.3072 48.2116 20.2252C48.0401 19.1432 47.4575 18.1926 46.5715 17.5485C45.685 16.905 44.6013 16.6444 43.5188 16.8158C42.4368 16.9872 41.4862 17.5699 40.8421 18.4559C40.1986 19.3424 39.938 20.4265 40.1094 21.5086C40.2082 22.1297 40.4421 22.707 40.7914 23.2079L37.1977 28.1544C36.5194 27.8745 35.7776 27.7196 35.0001 27.7196C34.2225 27.7196 33.4807 27.8745 32.8029 28.1544L29.2023 23.1988C29.5398 22.7043 29.7663 22.1377 29.8629 21.5288C30.0344 20.4468 29.7738 19.3627 29.1297 18.4762C27.8004 16.6465 25.2305 16.2401 23.4008 17.5693C21.5712 18.8981 21.1642 21.4685 22.4935 23.2982C23.2951 24.401 24.5475 24.9869 25.8175 24.9869C26.2127 24.9869 26.6095 24.9281 26.9951 24.8122L30.5925 29.7635C30.405 29.9841 30.2336 30.2185 30.0803 30.4658L18.5489 26.7188C15.3248 25.6715 12.7373 23.2725 11.4502 20.1366ZM43.3565 21.9726C43.0611 21.758 42.8673 21.4413 42.8101 21.0808C42.753 20.7197 42.8395 20.3587 43.0542 20.0634C43.2689 19.7675 43.5856 19.5737 43.9466 19.5165C44.0187 19.5048 44.0913 19.4994 44.1629 19.4994C44.4497 19.4994 44.7279 19.5891 44.9634 19.7606C45.2593 19.9753 45.4532 20.292 45.5103 20.653C45.5675 21.0135 45.4809 21.3745 45.2663 21.6704C45.0516 21.9657 44.7349 22.1596 44.3738 22.2167C44.0139 22.2744 43.6518 22.1873 43.3565 21.9726ZM24.705 21.6907C24.2623 21.0808 24.3979 20.2241 25.0078 19.7809C25.6177 19.3376 26.4743 19.4738 26.9176 20.0832C27.1323 20.379 27.2188 20.74 27.1617 21.1005C27.1045 21.4616 26.9107 21.7783 26.6148 21.9929C26.0054 22.4362 25.1483 22.3006 24.705 21.6907ZM15.0092 51.7709C11.6302 52.0262 8.32491 50.7893 5.94301 48.377C5.93661 48.3706 5.92966 48.3637 5.92272 48.3572L5.93073 48.3647C5.56437 47.9925 5.48266 47.4184 5.72779 46.9367L7.5014 43.4562C7.84426 42.7833 7.57723 41.9598 6.90432 41.6169L3.42333 39.8433C2.94161 39.5982 2.67031 39.0855 2.74828 38.5669C2.74828 38.5653 2.75041 38.553 2.75095 38.5514C3.25991 35.2002 5.20601 32.257 8.091 30.477C10.9749 28.6964 14.4783 28.2761 17.7024 29.324L29.2333 33.0704C29.2226 33.214 29.2151 33.3582 29.2151 33.5046C29.2151 33.6514 29.2226 33.7967 29.2333 33.9409L23.4072 35.8336C23.0414 35.3604 22.572 34.9695 22.023 34.6902C21.0472 34.1924 19.9359 34.1054 18.8939 34.4434C17.852 34.782 17.0039 35.5062 16.5067 36.4825C16.0095 37.4582 15.9219 38.5696 16.2605 39.6115C16.5991 40.6535 17.3227 41.5015 18.299 41.9988C18.8843 42.2973 19.5182 42.4479 20.157 42.4479C20.5831 42.4479 21.0115 42.3806 21.4286 42.245C22.4705 41.9064 23.3181 41.1827 23.8158 40.2065C24.101 39.6462 24.2511 39.0417 24.2633 38.4307L30.0792 36.5412C30.232 36.7885 30.4039 37.0229 30.5914 37.2435L23.4633 47.0541C21.4708 49.7965 18.3892 51.5157 15.0092 51.7709ZM21.3789 38.9648C21.2128 39.29 20.9308 39.5314 20.5831 39.6446C20.2355 39.7573 19.8654 39.7279 19.5401 39.5624C19.2149 39.3963 18.973 39.1138 18.8603 38.7666C18.7476 38.4195 18.777 38.0489 18.9425 37.7236C19.1086 37.3984 19.3911 37.1564 19.7383 37.0438C19.8771 36.9989 20.0203 36.9765 20.1623 36.9765C20.3749 36.9765 20.5864 37.0267 20.7813 37.126C21.1065 37.2921 21.3479 37.5746 21.4611 37.9218C21.5738 38.2689 21.5445 38.6395 21.3789 38.9648ZM46.195 58.1615C45.3934 61.4534 43.1973 64.2134 40.1617 65.7371C40.158 65.7387 40.1537 65.7408 40.15 65.743C39.6821 65.9764 39.1112 65.8765 38.7294 65.4946L35.9667 62.732C35.7103 62.4756 35.3627 62.3319 35.0001 62.3319C34.6374 62.3319 34.2898 62.4756 34.0334 62.732L31.2707 65.4946C30.8883 65.877 30.3174 65.9764 29.8501 65.743C29.8421 65.7392 29.8352 65.7355 29.8277 65.7318L29.8341 65.735C26.8044 64.215 24.6067 61.4545 23.8051 58.1615C23.003 54.8679 23.686 51.4062 25.6786 48.6638L32.8045 38.8553C33.071 38.9653 33.3477 39.0556 33.6329 39.1245V45.2522C32.0504 45.8215 30.9156 47.3372 30.9156 49.1129C30.9156 51.3741 32.7554 53.2145 35.0171 53.2145C37.2789 53.2145 39.1187 51.3741 39.1187 49.1129C39.1187 47.3238 37.9673 45.8002 36.3672 45.2405V39.1245C36.6519 39.0556 36.9285 38.9653 37.195 38.8553L44.3215 48.6638C46.3135 51.4062 46.9966 54.8679 46.195 58.1615ZM66.5768 39.8433L63.0958 41.6169C62.4234 41.9598 62.1558 42.7833 62.4987 43.4557L64.2723 46.9367C64.5164 47.4162 64.4368 47.9871 64.0656 48.3679C64.063 48.3711 64.0598 48.3743 64.0571 48.377C61.6752 50.7893 58.3683 52.0257 54.9909 51.7709C51.6109 51.5157 48.5293 49.7965 46.5368 47.0541L39.4092 37.2435C39.5967 37.0229 39.7681 36.7879 39.9214 36.5407L45.748 38.4345C45.7656 39.0326 45.9157 39.6243 46.1955 40.1733C46.6927 41.1496 47.5408 41.8732 48.5828 42.2118C48.9999 42.3475 49.4282 42.4148 49.8543 42.4148C50.4925 42.4148 51.127 42.2636 51.7118 41.9656C52.6881 41.4684 53.4122 40.6203 53.7508 39.5784C54.0894 38.5365 54.0018 37.4251 53.5046 36.4488C53.0069 35.4731 52.1593 34.7489 51.1174 34.4103C50.0754 34.0717 48.9641 34.1593 47.9878 34.6565C47.4276 34.9422 46.9512 35.3433 46.5822 35.8298L40.7668 33.9404C40.7775 33.7962 40.785 33.6514 40.785 33.5046C40.785 33.3582 40.778 33.2135 40.7668 33.0698L52.2977 29.3234C55.5212 28.2761 59.0247 28.6964 61.9096 30.4765C64.7941 32.257 66.7402 35.1997 67.2481 38.5434L67.2524 38.5685C67.3298 39.0855 67.0585 39.5976 66.5768 39.8433ZM48.5496 37.8886C48.6623 37.5415 48.9037 37.259 49.2295 37.0929C49.4244 36.9936 49.6354 36.9434 49.8485 36.9434C49.9905 36.9434 50.1331 36.9658 50.2725 37.0112C50.6196 37.1239 50.9022 37.3653 51.0677 37.6905C51.2338 38.0158 51.2632 38.3864 51.15 38.7335C51.0373 39.0812 50.7959 39.3637 50.4706 39.5293C50.1454 39.6954 49.7748 39.7242 49.4276 39.6115C49.08 39.4988 48.7974 39.2574 48.6319 38.9317C48.4658 38.6064 48.437 38.2358 48.5496 37.8886Z" fill="white"/>
<path d="M35 24.989C35.3594 24.989 35.7119 24.8432 35.9661 24.5885C36.2204 24.3327 36.3672 23.9818 36.3672 23.6218C36.3672 23.2624 36.2209 22.9099 35.9661 22.6541C35.7119 22.3999 35.3594 22.2546 35 22.2546C34.6401 22.2546 34.2876 22.3999 34.0334 22.6541C33.7792 22.9099 33.6328 23.2624 33.6328 23.6218C33.6328 23.9818 33.7786 24.3327 34.0334 24.5885C34.2876 24.8432 34.6401 24.989 35 24.989Z" fill="white"/>
</g>
<defs>
<clipPath id="clip0">
<rect width="70" height="70" fill="white"/>
</clipPath>
</defs>
</svg>
