<svg width="100" height="100" viewBox="0 0 100 100" fill="none" xmlns="http://www.w3.org/2000/svg">
<path d="M50.0177 0.0104375C30.0115 0.00752149 11.9302 11.9327 4.05583 30.3241L3.43263 30.5307L3.67424 31.2556C-6.6936 56.8265 5.63071 85.9607 31.2016 96.3285C37.1739 98.7501 43.5582 99.9932 50.0029 99.9896C77.6113 99.9938 99.9958 77.6159 100 50.0075C100.004 22.3991 77.6263 0.0143951 50.0177 0.0104375ZM89.2289 75.2039L86.662 72.6386V66.6632C86.6649 66.4054 86.6078 66.1504 86.4953 65.9184L79.9967 52.9394V46.6674C79.9967 46.1104 79.7186 45.5901 79.2552 45.281L74.2562 41.9484C73.8644 41.6868 73.3801 41.6032 72.9232 41.7184L66.8011 43.2481L56.5182 38.8357L55.1035 28.9244L59.0244 25.0052H67.441L70.2737 29.2627C70.5295 29.6455 70.9325 29.9057 71.3868 29.9809L81.3847 31.6472C81.6526 31.6922 81.9271 31.6703 82.1846 31.5839L91.3926 28.5145C99.1158 43.3354 98.2897 61.161 89.2289 75.2039ZM82.3562 16.4304L79.6467 18.2366L72.0933 16.7253L67.1927 15.094C66.8927 14.9921 66.5699 14.9792 66.2629 15.0573L60.0675 16.6053L57.3514 15.7005L59.3643 11.6747H64.9998C65.2583 11.6749 65.5132 11.6151 65.7446 11.4997L71.5101 8.61698C75.4805 10.6895 79.1331 13.3206 82.3562 16.4304ZM31.7517 7.06397L35.7509 9.73008C35.9475 9.86089 36.1696 9.94837 36.4024 9.98669L44.4774 11.3331L43.6892 13.6909L39.4818 15.0956C39.105 15.221 38.7853 15.4768 38.5803 15.8171L33.7946 23.7922L26.1079 28.4045L14.7769 30.0225C13.9556 30.1385 13.3449 30.8411 13.3439 31.6705V36.6695C13.3439 37.1115 13.5197 37.5351 13.8321 37.8476L16.6765 40.692V43.5547L9.74465 38.9323L7.23017 31.3889C12.0142 20.4578 20.7826 11.7597 31.7517 7.06397ZM27.0077 61.6976L19.476 60.1896L16.6765 54.6057V50.6899L22.8852 44.4812L25.1831 49.0786C25.4653 49.6434 26.0429 50.0002 26.6745 50H37.3956L41.9096 57.5235C42.2108 58.0248 42.7528 58.3314 43.3376 58.3316H47.97L46.8036 64.1754L40.4949 70.4841C40.1818 70.7963 40.0056 71.22 40.005 71.6622V75.828L34.0063 80.327C33.5868 80.6418 33.3397 81.1356 33.3397 81.6601V87.6788L31.2668 86.9923L28.3408 79.6739V63.3306C28.341 62.5387 27.7836 61.8559 27.0077 61.6976ZM21.9988 87.3133C6.28766 75.5264 -0.356584 55.1606 5.38055 36.3762L6.76527 40.5287C6.88191 40.8801 7.11228 41.1827 7.42013 41.3885L15.7267 46.9257L13.8321 48.8219C13.5197 49.1344 13.3439 49.558 13.3439 50V54.999C13.3437 55.2575 13.4035 55.5124 13.5189 55.7438L16.8515 62.4091C17.0823 62.8694 17.5128 63.1973 18.0179 63.2973L25.0165 64.6953V79.9938C25.0163 80.2054 25.0565 80.4154 25.1348 80.612L28.4674 88.9436C28.6499 89.3987 29.0235 89.7505 29.4889 89.9051L34.4878 91.5714C34.6549 91.628 34.8298 91.6572 35.0061 91.658C35.9263 91.658 36.6724 90.9119 36.6724 89.9917V82.4933L42.6711 77.9942C43.0906 77.6795 43.3376 77.1856 43.3376 76.6611V72.352L49.5147 66.175C49.7469 65.9423 49.9052 65.6459 49.9696 65.3235L51.6359 56.9919C51.8163 56.0894 51.231 55.2116 50.3285 55.0313C50.2212 55.0098 50.1123 54.999 50.0029 54.999H44.2808L39.7667 47.4755C39.4655 46.9742 38.9236 46.6676 38.3387 46.6674H27.7042L24.8415 40.9236C24.6018 40.4441 24.146 40.1092 23.6168 40.0238C23.0877 39.9323 22.5476 40.1069 22.1721 40.4903L20.0092 42.6449V40.0021C20.0092 39.5601 19.8334 39.1365 19.5209 38.824L16.6765 35.9796V33.1152L26.9111 31.6538C27.1308 31.622 27.3422 31.5466 27.5326 31.4322L35.8642 26.4333C36.0979 26.2929 36.2937 26.0971 36.4341 25.8634L41.1164 18.06L45.5305 16.587C46.029 16.4235 46.4201 16.0325 46.5836 15.5339L48.25 10.5349C48.5386 9.66114 48.0644 8.71862 47.1906 8.42993C47.11 8.40327 47.0273 8.38286 46.9436 8.3687L37.2989 6.7607L35.6043 5.63093C46.0902 2.21789 57.4474 2.64031 67.6509 6.82235L64.6065 8.34204H58.3345C57.6999 8.33849 57.1185 8.69592 56.8348 9.26351L53.5022 15.9288C53.0917 16.7524 53.4264 17.753 54.25 18.1635C54.3202 18.1985 54.3926 18.2285 54.467 18.2533L59.466 19.9196C59.7659 20.0215 60.0887 20.0344 60.3958 19.9563L66.5911 18.4083L71.1302 19.9196C71.1952 19.943 71.262 19.9609 71.3302 19.9729L79.6617 21.6393C80.095 21.7276 80.5457 21.6388 80.9132 21.3927L84.7057 18.8632C86.5722 20.9421 88.2495 23.1833 89.718 25.5601L81.5197 28.2929L72.6432 26.8132L69.7105 22.4141C69.403 21.9532 68.8865 21.6753 68.3324 21.6726H58.3345C57.8925 21.6726 57.4689 21.8484 57.1564 22.1608L52.1575 27.1598C51.7863 27.5307 51.6115 28.055 51.6859 28.5745L53.3522 40.2387C53.4362 40.8155 53.8153 41.3064 54.352 41.5335L66.0163 46.5324C66.3504 46.6772 66.7232 46.707 67.076 46.6174L73.0265 45.1294L76.664 47.5589V53.3327C76.6611 53.5905 76.7182 53.8455 76.8307 54.0775L83.3293 67.0565V73.3285C83.3293 73.7705 83.5051 74.1942 83.8175 74.5066L87.3035 77.9942C71.8436 98.601 42.6055 102.773 21.9988 87.3133Z" fill="white"/>
</svg>
