<svg width="50" height="50" viewBox="0 0 50 50" fill="none" xmlns="http://www.w3.org/2000/svg">
<g clip-path="url(#clip0)">
<path d="M46.394 0H3.60603C1.61438 0 0 1.61438 0 3.60603V46.394C0 48.3856 1.61438 50 3.60603 50H26.709V30.6641H20.2148V23.0957H26.709V17.5259C26.709 11.0668 30.6522 7.55119 36.414 7.55119C39.1735 7.55119 41.5451 7.75681 42.2363 7.84874V14.5996H38.2633C35.1284 14.5996 34.5215 16.0892 34.5215 18.2755V23.0957H42.0166L41.04 30.6641H34.5215V50H46.394C48.3856 50 50 48.3856 50 46.394V3.60603C50 1.61438 48.3856 0 46.394 0V0Z" fill="white"/>
</g>
<defs>
<clipPath id="clip0">
<rect width="50" height="50" fill="white"/>
</clipPath>
</defs>
</svg>
