<svg width="50" height="50" viewBox="0 0 50 50" fill="none" xmlns="http://www.w3.org/2000/svg">
<g clip-path="url(#clip0)">
<path d="M46.394 0H3.60603C1.61438 0 0 1.61438 0 3.60603V46.394C0 48.3856 1.61438 50 3.60603 50H46.394C48.3856 50 50 48.3856 50 46.394V3.60603C50 1.61438 48.3856 0 46.394 0V0ZM25.1953 38.3823C23.6477 38.3823 22.1539 38.1638 20.7485 37.759L15.707 40.625V35.2333C12.3302 32.6637 10.1738 28.7502 10.1738 24.3671C10.1738 16.6264 16.8991 10.3516 25.1953 10.3516C33.4919 10.3516 40.2168 16.6264 40.2168 24.3671C40.2168 32.1072 33.4919 38.3823 25.1953 38.3823Z" fill="white"/>
<path d="M23.5912 20.5283L15.4904 29.1053L22.8626 25.0602L26.7147 29.1053L34.7702 20.5283L27.4796 24.5025L23.5912 20.5283Z" fill="white"/>
</g>
<defs>
<clipPath id="clip0">
<rect width="50" height="50" fill="white"/>
</clipPath>
</defs>
</svg>
