<svg width="120" height="120" viewBox="0 0 120 120" fill="none" xmlns="http://www.w3.org/2000/svg">
<g clip-path="url(#clip0)">
<path d="M24.3118 74.5759C24.9457 73.9389 25.1693 73.0041 24.8958 72.1366C24.6227 71.2688 23.9091 70.6482 23.0334 70.5169L17.6265 69.7065C17.352 69.6652 17.1148 69.4875 16.9921 69.2311L14.5741 64.1768C14.1825 63.3588 13.3898 62.8506 12.5052 62.8506C11.6207 62.8506 10.8279 63.3588 10.4364 64.1768C10.4364 64.1769 8.01832 69.2311 8.01832 69.2311C7.89561 69.4875 7.65845 69.6653 7.38441 69.7065L1.97716 70.5169C1.1014 70.6482 0.387768 71.2688 0.11485 72.1362C-0.158849 73.0041 0.064829 73.939 0.698445 74.5757L4.61113 78.5102C4.8096 78.7097 4.90016 78.9971 4.85342 79.2786L3.92959 84.834C3.78031 85.7334 4.13197 86.6252 4.84736 87.1612C5.56289 87.6975 6.49395 87.767 7.27729 87.3426L12.1134 84.7198C12.3587 84.5868 12.6517 84.5869 12.8967 84.7196L17.7332 87.3426C18.5166 87.767 19.4476 87.6975 20.1632 87.1612C20.8785 86.6252 21.2302 85.7334 21.0809 84.834L20.1571 79.2788C20.1103 78.9971 20.2008 78.7097 20.3995 78.5101L24.3118 74.5759ZM18.7126 79.5339L19.6366 85.0896C19.6918 85.4224 19.5667 85.7398 19.3019 85.9383C19.1548 86.0485 18.9845 86.1067 18.8092 86.1067C18.7323 86.1067 18.5851 86.0966 18.4148 86.0043L13.5787 83.3817C13.2486 83.2028 12.8776 83.1085 12.5053 83.1085C12.1328 83.1085 11.7616 83.2029 11.4319 83.3817L6.59531 86.0046C6.26309 86.1847 5.93063 86.1047 5.7088 85.9384C5.44385 85.7399 5.31875 85.4224 5.37404 85.0891L6.29782 79.5342C6.426 78.7616 6.17775 77.9743 5.63392 77.4276L1.72143 73.4934C1.48667 73.2574 1.40714 72.925 1.50845 72.6038C1.60972 72.282 1.86363 72.0614 2.18799 72.0128L7.59505 71.2024C8.34722 71.0893 8.99637 70.6025 9.33245 69.9002L11.7505 64.8461C11.8954 64.5431 12.1776 64.3623 12.5053 64.3623C12.8329 64.3623 13.1151 64.5431 13.2601 64.8461L15.678 69.9001C16.0142 70.6026 16.6635 71.0893 17.4149 71.2024C18.6136 71.3819 20.9095 71.7258 22.8224 72.0128C23.1469 72.0614 23.4009 72.2822 23.5019 72.6033C23.6034 72.9251 23.5238 73.2574 23.2892 73.4932L19.3765 77.4277C18.8327 77.9743 18.5845 78.7618 18.7126 79.5339Z" fill="white"/>
<path d="M39.7688 41.5941C40.5611 40.7979 40.8407 39.6293 40.4987 38.545C40.1574 37.4602 39.2654 36.6844 38.1707 36.5203L31.4121 35.5074C31.069 35.4557 30.7726 35.2336 30.6192 34.9131L27.5966 28.5952C27.1071 27.5727 26.1162 26.9375 25.0105 26.9375C23.9049 26.9375 22.914 27.5727 22.4245 28.5952C22.4245 28.5953 19.4019 34.913 19.4019 34.913C19.2485 35.2336 18.9521 35.4558 18.6095 35.5073L11.8505 36.5203C10.7558 36.6844 9.86374 37.4602 9.52259 38.5444C9.18047 39.6293 9.46006 40.7979 10.2521 41.5939L15.1429 46.512C15.391 46.7613 15.5042 47.1205 15.4458 47.4724L14.291 54.4167C14.1044 55.541 14.544 56.6557 15.4382 57.3258C16.3326 57.9961 17.4965 58.083 18.4756 57.5524L24.5208 54.274C24.8274 54.1077 25.1936 54.1078 25.5 54.2738L31.5456 57.5524C32.5248 58.083 33.6886 57.9961 34.583 57.3258C35.4772 56.6557 35.9168 55.541 35.7302 54.4167L34.5754 47.4727C34.5169 47.1205 34.6301 46.7613 34.8783 46.5118L39.7688 41.5941ZM32.7698 47.7916L33.9248 54.7362C33.9938 55.1522 33.8374 55.549 33.5064 55.7971C33.3226 55.9348 33.1097 56.0075 32.8905 56.0075C32.7945 56.0075 32.6104 55.995 32.3975 55.8796L26.3524 52.6013C25.9398 52.3777 25.476 52.2598 25.0107 52.2598C24.5451 52.2598 24.081 52.3779 23.6689 52.6013L17.6232 55.88C17.2079 56.1051 16.7923 56.005 16.515 55.7972C16.1838 55.549 16.0275 55.1522 16.0966 54.7356L17.2513 47.792C17.4115 46.8261 17.1012 45.8421 16.4214 45.1588L11.5308 40.2409C11.2374 39.946 11.138 39.5304 11.2646 39.129C11.3912 38.7268 11.7086 38.451 12.114 38.3902L18.8728 37.3772C19.813 37.2358 20.6245 36.6274 21.0446 35.7494L24.0671 29.4318C24.2483 29.0531 24.6011 28.8271 25.0106 28.8271C25.4201 28.8271 25.7729 29.0531 25.9541 29.4318L28.9766 35.7493C29.3968 36.6274 30.2084 37.2358 31.1477 37.3772C32.6461 37.6016 35.5159 38.0314 37.9071 38.3902C38.3127 38.451 38.6301 38.7269 38.7564 39.1284C38.8833 39.5306 38.7838 39.946 38.4906 40.2407L33.5997 45.1588C32.9199 45.8421 32.6096 46.8264 32.7698 47.7916Z" fill="white"/>
<path d="M108.548 41.5941C109.34 40.7979 109.62 39.6293 109.278 38.545C108.936 37.4602 108.044 36.6844 106.95 36.5203L100.191 35.5074C99.8479 35.4557 99.5514 35.2336 99.3981 34.9131L96.3755 28.5952C95.886 27.5727 94.8951 26.9375 93.7894 26.9375C92.6837 26.9375 91.6928 27.5727 91.2034 28.5952C91.2034 28.5953 88.1808 34.913 88.1808 34.913C88.0274 35.2336 87.731 35.4558 87.3884 35.5073L80.6293 36.5203C79.5346 36.6844 78.6426 37.4602 78.3015 38.5444C77.9593 39.6293 78.2389 40.7979 79.031 41.5939L83.9218 46.512C84.1699 46.7613 84.2831 47.1205 84.2247 47.4724L83.0699 54.4167C82.8833 55.541 83.3229 56.6557 84.2171 57.3258C85.1115 57.9961 86.2753 58.083 87.2545 57.5524L93.2997 54.274C93.6063 54.1077 93.9725 54.1078 94.2788 54.2738L100.324 57.5524C101.304 58.083 102.467 57.9961 103.362 57.3258C104.256 56.6557 104.696 55.541 104.509 54.4167L103.354 47.4727C103.296 47.1205 103.409 46.7613 103.657 46.5118L108.548 41.5941ZM101.549 47.7916L102.704 54.7362C102.773 55.1522 102.616 55.549 102.285 55.7971C102.101 55.9348 101.889 56.0075 101.669 56.0075C101.573 56.0075 101.389 55.995 101.176 55.8796L95.1313 52.6013C94.7187 52.3777 94.2549 52.2598 93.7896 52.2598C93.324 52.2598 92.8599 52.3779 92.4477 52.6013L86.402 55.88C85.9868 56.1051 85.5712 56.005 85.2939 55.7972C84.9627 55.549 84.8063 55.1522 84.8755 54.7356L86.0302 47.792C86.1904 46.8261 85.8801 45.8421 85.2003 45.1588L80.3097 40.2409C80.0162 39.946 79.9168 39.5304 80.0435 39.129C80.17 38.7268 80.4874 38.451 80.8929 38.3902L87.6517 37.3772C88.5919 37.2358 89.4034 36.6274 89.8235 35.7494L92.846 29.4318C93.0272 29.0531 93.38 28.8271 93.7895 28.8271C94.199 28.8271 94.5518 29.0531 94.733 29.4318L97.7555 35.7493C98.1757 36.6274 98.9873 37.2358 99.9266 37.3772C101.425 37.6016 104.295 38.0314 106.686 38.3902C107.092 38.451 107.409 38.7269 107.535 39.1283C107.662 39.5306 107.563 39.946 107.269 40.2407L102.379 45.1588C101.699 45.8421 101.389 46.8264 101.549 47.7916Z" fill="white"/>
<path d="M77.11 27.1879C78.0607 26.2325 78.3962 24.8302 77.9859 23.529C77.5763 22.2273 76.5058 21.2963 75.1923 21.0994L67.0819 19.8839C66.6702 19.8219 66.3145 19.5553 66.1304 19.1707L62.5033 11.5893C61.9159 10.3622 60.7269 9.6 59.4 9.6C58.0732 9.6 56.8841 10.3622 56.2968 11.5893C56.2968 11.5894 52.6697 19.1707 52.6697 19.1707C52.4856 19.5554 52.1299 19.822 51.7188 19.8838L43.6079 21.0994C42.2943 21.2963 41.2239 22.2273 40.8145 23.5283C40.4039 24.8302 40.7395 26.2326 41.6899 27.1877L47.5589 33.0894C47.8566 33.3886 47.9925 33.8197 47.9223 34.242L46.5366 42.5751C46.3127 43.9243 46.8402 45.2619 47.9133 46.0659C48.9866 46.8704 50.3831 46.9746 51.5581 46.338L58.8123 42.4038C59.1803 42.2043 59.6197 42.2044 59.9873 42.4036L67.2421 46.338C68.4171 46.9747 69.8137 46.8704 70.887 46.0659C71.96 45.2618 72.4876 43.9243 72.2636 42.5751L70.8778 34.2423C70.8077 33.8197 70.9435 33.3886 71.2414 33.0892L77.11 27.1879ZM68.7111 34.625L70.0971 42.9585C70.18 43.4576 69.9923 43.9338 69.595 44.2315C69.3745 44.3968 69.119 44.4841 68.856 44.4841C68.7407 44.4841 68.5199 44.4691 68.2644 44.3306L61.0103 40.3966C60.5151 40.1283 59.9586 39.9868 59.4002 39.9868C58.8415 39.9868 58.2846 40.1285 57.79 40.3966L50.5352 44.331C50.0368 44.6011 49.5382 44.4811 49.2054 44.2317C48.808 43.9339 48.6203 43.4577 48.7033 42.9578L50.0889 34.6254C50.2812 33.4664 49.9088 32.2855 49.0931 31.4655L43.2244 25.5641C42.8722 25.2102 42.7529 24.7116 42.9049 24.2298C43.0568 23.7471 43.4377 23.4162 43.9242 23.3433L52.0348 22.1277C53.163 21.958 54.1368 21.2279 54.6409 20.1743L58.2679 12.5932C58.4854 12.1388 58.9087 11.8675 59.4001 11.8675C59.8916 11.8675 60.3149 12.1388 60.5323 12.5932L64.1593 20.1742C64.6635 21.2279 65.6375 21.958 66.7646 22.1277C68.5627 22.397 72.0064 22.9127 74.8759 23.3433C75.3626 23.4162 75.7435 23.7474 75.8951 24.229C76.0474 24.7118 75.9279 25.2102 75.5761 25.5639L69.707 31.4656C68.8912 32.2855 68.5189 33.4667 68.7111 34.625Z" fill="white"/>
<path d="M118.101 74.5759C118.735 73.9389 118.959 73.0041 118.685 72.1366C118.412 71.2688 117.699 70.6482 116.823 70.5169L111.416 69.7065C111.141 69.6652 110.904 69.4875 110.782 69.2311L108.363 64.1768C107.972 63.3588 107.179 62.8506 106.295 62.8506C105.41 62.8506 104.617 63.3588 104.226 64.1768C104.226 64.1769 101.808 69.2311 101.808 69.2311C101.685 69.4875 101.448 69.6653 101.174 69.7065L95.7666 70.5169C94.8908 70.6482 94.1772 71.2688 93.9043 72.1362C93.6306 73.0041 93.8543 73.939 94.4879 74.5757L98.4006 78.5102C98.599 78.7097 98.6896 78.9971 98.6428 79.2786L97.719 84.834C97.5697 85.7335 97.9214 86.6252 98.6368 87.1612C99.3523 87.6975 100.283 87.767 101.067 87.3426L105.903 84.7198C106.148 84.5868 106.441 84.5869 106.686 84.7196L111.523 87.3426C112.306 87.767 113.237 87.6975 113.953 87.1612C114.668 86.6252 115.02 85.7335 114.87 84.834L113.946 79.2788C113.9 78.9971 113.99 78.7097 114.189 78.5101L118.101 74.5759ZM112.502 79.5339L113.426 85.0896C113.481 85.4224 113.356 85.7398 113.091 85.9383C112.944 86.0485 112.774 86.1067 112.599 86.1067C112.522 86.1067 112.375 86.0966 112.204 86.0043L107.368 83.3817C107.038 83.2028 106.667 83.1085 106.295 83.1085C105.922 83.1085 105.551 83.2029 105.221 83.3817L100.385 86.0046C100.053 86.1847 99.7201 86.1047 99.4982 85.9384C99.2333 85.7399 99.1082 85.4224 99.1635 85.0891L100.087 79.5342C100.215 78.7616 99.9672 77.9743 99.4233 77.4276L95.5109 73.4934C95.2761 73.2574 95.1966 72.925 95.2979 72.6038C95.3991 72.282 95.6531 72.0614 95.9774 72.0128L101.384 71.2024C102.137 71.0893 102.786 70.6025 103.122 69.9002L105.54 64.8461C105.685 64.5431 105.967 64.3623 106.295 64.3623C106.622 64.3623 106.905 64.5431 107.05 64.8461L109.467 69.9001C109.804 70.6026 110.453 71.0893 111.204 71.2024C112.403 71.3819 114.699 71.7258 116.612 72.0128C116.936 72.0614 117.19 72.2822 117.291 72.6033C117.393 72.9251 117.313 73.2574 117.079 73.4932L113.166 77.4277C112.622 77.9743 112.374 78.7618 112.502 79.5339Z" fill="white"/>
<path d="M82.593 75.6298C83.8434 77.4823 104.558 101.285 110.702 106.401C111.865 107.368 111.17 109.252 109.652 109.252H8.51157C6.99955 109.252 6.2938 107.372 7.46101 106.401C24.4332 92.2682 36.1383 77.3827 46.5995 56.6277C47.0016 55.8295 47.9814 55.5052 48.7875 55.9038C49.5936 56.3022 49.9209 57.2723 49.5185 58.0705C47.8713 61.3386 46.1933 64.4634 44.4702 67.4657C45.6639 70.2605 46.457 70.7734 46.7516 70.8615C49.2137 71.602 55.8548 60.7793 72.2334 64.8765C70.1999 61.1925 68.2008 57.2806 66.2014 53.0783H50.9251C50.0242 53.0783 49.2938 52.355 49.2938 51.4628C49.2938 50.5707 50.0242 49.8474 50.9251 49.8474H67.2383C67.8722 49.8474 68.4487 50.2111 68.7167 50.7799C72.6705 59.1741 76.6067 66.3923 80.8055 72.9174L82.593 75.6298Z" fill="white"/>
</g>
<defs>
<clipPath id="clip0">
<rect width="120" height="120" fill="white"/>
</clipPath>
</defs>
</svg>
