<svg width="20" height="20" viewBox="0 0 20 20" fill="none" xmlns="http://www.w3.org/2000/svg">
<path d="M5.41667 8.3334C5.23083 8.3334 5.0525 8.36173 4.875 8.38756C4.9325 8.19423 4.99167 7.99756 5.08667 7.8209C5.18167 7.56423 5.33 7.34173 5.4775 7.11756C5.60083 6.87506 5.81833 6.7109 5.97833 6.5034C6.14583 6.30173 6.37417 6.16756 6.555 6.00006C6.7325 5.82506 6.965 5.73756 7.15 5.61423C7.34333 5.5034 7.51167 5.3809 7.69167 5.32256L8.14083 5.13756L8.53583 4.9734L8.13167 3.3584L7.63417 3.4784C7.475 3.5184 7.28083 3.56506 7.06 3.6209C6.83417 3.66256 6.59333 3.77673 6.325 3.8809C6.06 3.99923 5.75333 4.07923 5.46833 4.26923C5.18167 4.4509 4.85083 4.60256 4.55917 4.8459C4.27667 5.09673 3.93583 5.31423 3.68417 5.6334C3.40917 5.93173 3.1375 6.24506 2.92667 6.60173C2.6825 6.94173 2.51667 7.31506 2.34167 7.68423C2.18333 8.0534 2.05583 8.4309 1.95167 8.79756C1.75417 9.53256 1.66583 10.2309 1.63167 10.8284C1.60333 11.4267 1.62 11.9242 1.655 12.2842C1.6675 12.4542 1.69083 12.6192 1.7075 12.7334L1.72833 12.8734L1.75 12.8684C1.89822 13.5608 2.23942 14.197 2.73414 14.7035C3.22885 15.2101 3.85687 15.5662 4.54553 15.7308C5.2342 15.8953 5.95537 15.8615 6.62563 15.6333C7.29589 15.405 7.88784 14.9917 8.33301 14.4411C8.77818 13.8905 9.05837 13.2252 9.14118 12.522C9.22399 11.8188 9.10603 11.1065 8.80094 10.4676C8.49586 9.82864 8.01611 9.28912 7.41721 8.91144C6.8183 8.53376 6.12471 8.33335 5.41667 8.3334V8.3334ZM14.5833 8.3334C14.3975 8.3334 14.2192 8.36173 14.0417 8.38756C14.0992 8.19423 14.1583 7.99756 14.2533 7.8209C14.3483 7.56423 14.4967 7.34173 14.6442 7.11756C14.7675 6.87506 14.985 6.7109 15.145 6.5034C15.3125 6.30173 15.5408 6.16756 15.7217 6.00006C15.8992 5.82506 16.1317 5.73756 16.3167 5.61423C16.51 5.5034 16.6783 5.3809 16.8583 5.32256L17.3075 5.13756L17.7025 4.9734L17.2983 3.3584L16.8008 3.4784C16.6417 3.5184 16.4475 3.56506 16.2267 3.6209C16.0008 3.66256 15.76 3.77673 15.4917 3.8809C15.2275 4.00006 14.92 4.07923 14.635 4.27006C14.3483 4.45173 14.0175 4.6034 13.7258 4.84673C13.4433 5.09756 13.1025 5.31506 12.8508 5.6334C12.5758 5.93173 12.3042 6.24506 12.0933 6.60173C11.8492 6.94173 11.6833 7.31506 11.5083 7.68423C11.35 8.0534 11.2225 8.4309 11.1183 8.79756C10.9208 9.53256 10.8325 10.2309 10.7983 10.8284C10.77 11.4267 10.7867 11.9242 10.8217 12.2842C10.8342 12.4542 10.8575 12.6192 10.8742 12.7334L10.895 12.8734L10.9167 12.8684C11.0649 13.5608 11.4061 14.197 11.9008 14.7035C12.3955 15.2101 13.0235 15.5662 13.7122 15.7308C14.4009 15.8953 15.122 15.8615 15.7923 15.6333C16.4626 15.405 17.0545 14.9917 17.4997 14.4411C17.9448 13.8905 18.225 13.2252 18.3078 12.522C18.3907 11.8188 18.2727 11.1065 17.9676 10.4676C17.6625 9.82864 17.1828 9.28912 16.5839 8.91144C15.985 8.53376 15.2914 8.33335 14.5833 8.3334V8.3334Z" fill="white"/>
</svg>
