<svg width="25" height="27" viewBox="0 0 25 27" fill="none" xmlns="http://www.w3.org/2000/svg">
<path d="M5.85003 7.76987L2.14346 8.2099C1.59334 8.27523 1.18458 8.75735 1.21913 9.31027C1.46171 13.1837 3.06098 16.9879 6.0212 19.9481C10.5965 24.5234 17.1878 25.8523 22.9353 23.9372C24.8505 18.1896 23.5216 11.5983 18.9463 7.02304C15.9861 4.06282 12.1819 2.46366 8.30843 2.22096C7.75551 2.18629 7.27339 2.59505 7.20807 3.1453L6.76804 6.85187C6.71098 7.33313 6.33142 7.7127 5.85003 7.76987Z" fill="#EC9EB0"/>
<path d="M0.00447037 9.38226C0.215175 12.7467 1.36858 15.9595 3.33987 18.6735C3.73464 19.2171 4.49535 19.3376 5.03915 18.9429C5.5827 18.548 5.70326 17.7873 5.30849 17.2436C3.64133 14.9483 2.65265 12.2379 2.44413 9.39516L5.99292 8.97387C7.03647 8.85003 7.8518 8.0347 7.97565 6.99114L8.39694 3.44223C12.0539 3.71097 15.489 5.28263 18.0855 7.8791C20.1333 9.92691 21.5518 12.4947 22.1876 15.3048C22.7613 17.8405 22.6824 20.4746 21.9631 22.9616C19.1979 23.7629 16.2859 23.7716 13.5025 22.9808C12.8564 22.7972 12.1834 23.1723 11.9999 23.8187C11.8163 24.4649 12.1913 25.1378 12.8377 25.3213C16.291 26.3022 19.9156 26.2213 23.3193 25.0871C23.6826 24.966 23.9678 24.6809 24.0889 24.3176C25.1146 21.2395 25.2777 17.9373 24.5607 14.7679C23.8234 11.509 22.1792 8.53202 19.806 6.15866C16.7511 3.10379 12.6946 1.27265 8.38392 1.0027C8.33623 0.999775 8.28879 0.998188 8.24171 0.998188C7.10643 0.998188 6.1355 1.85184 5.99949 2.99771L5.57504 6.57326L1.9996 6.99771C0.806051 7.13944 -0.0703472 8.18689 0.00447037 9.38226Z" fill="black"/>
<path d="M8.22639 20.5808C7.55451 20.5808 7.00984 21.1255 7.00984 21.7974C7.00984 22.4692 7.55451 23.0139 8.22639 23.0139C8.89827 23.0139 9.44293 22.4692 9.44293 21.7974C9.44293 21.1255 8.89827 20.5808 8.22639 20.5808Z" fill="black"/>
</svg>
