<svg width="100" height="100" viewBox="0 0 100 100" fill="none" xmlns="http://www.w3.org/2000/svg">
<path d="M1.36667 60L6.75 63.9667L0.583333 71.6667C-0.411042 73.1246 -0.0968269 75.1049 1.3 76.1833L6.66667 80.3667L0.4 92.1167C-0.376887 93.577 0.0345971 95.3861 1.36667 96.3667L5.51667 99.35C6.38075 99.986 7.49813 100.167 8.5189 99.8368C9.53967 99.5065 10.339 98.705 10.6667 97.6833L12.9333 90.6333C17.3333 83.9667 32.9333 79.25 50 79.25C67.0667 79.25 82.6667 84.0333 87.0667 90.6333L89.35 97.7333C89.7013 98.7241 90.4994 99.491 91.5033 99.8027C92.5073 100.114 93.5994 99.9342 94.45 99.3167L98.65 96.3C99.9762 95.3146 100.38 93.5063 99.6 92.05L93.2667 80.3833L98.7 76.2167C100.028 75.1956 100.391 73.3481 99.55 71.9L93.3333 64.0167L98.6167 60C100.082 58.9417 100.437 56.9087 99.4167 55.4167L92.2333 45.6333C94.2008 44.2536 96.2367 42.9742 98.3333 41.8C99.8491 40.9323 100.438 39.0417 99.6833 37.4667L95 28.6333C94.353 27.206 92.7991 26.4221 91.2667 26.75C88.4107 27.3561 85.6591 28.3781 83.1 29.7833C82.6827 25.9062 81.5884 22.1323 79.8667 18.6333C82.5607 16.1017 84.7495 13.0816 86.3167 9.73334C86.9831 8.30846 86.5627 6.61162 85.3082 5.66267C84.0536 4.71372 82.3064 4.77096 81.1167 5.8C78.9409 7.5367 76.634 9.10248 74.2167 10.4833C67.9202 3.82157 59.1582 0.0467377 49.9917 0.0467377C40.8252 0.0467377 32.0632 3.82157 25.7667 10.4833C23.3 9.12902 20.9527 7.56787 18.75 5.81667C17.5543 4.81681 15.8254 4.77901 14.5872 5.72566C13.3489 6.67231 12.932 8.35064 13.5833 9.76667C15.1125 13.1529 17.2928 16.2052 20 18.75C18.3163 22.2177 17.2449 25.9505 16.8333 29.7833C14.2742 28.3781 11.5226 27.3561 8.66667 26.75C7.15626 26.4562 5.64104 27.2345 5 28.6333L0.266666 37.5833C-0.407976 39.1403 0.194744 40.9557 1.66667 41.8C3.7587 42.9909 5.78908 44.287 7.75 45.6833L0.533333 55.5333C-0.403864 57.0103 -0.0400346 58.9604 1.36667 60ZM3.33333 73.5667L9.38333 66.0333L16.5 71.2L12.7667 80.7667L8.33333 77.3667L3.33333 73.5667ZM7.48333 96.6667L3.33333 93.6833L9.41667 82.4167L11.5667 84.0833L7.48333 96.6667ZM96.6667 93.65L92.5 96.6667L88.4333 84L90.5833 82.3333L96.6667 93.65ZM91.6667 77.3833L87.25 80.7167L83.5 71.15L90.6167 65.9833L96.6667 73.5667L91.6667 77.3833ZM85 84.1667C68.95 73.25 31.1333 73.2333 15 84.1667C15 83.95 17.6667 77.3333 24.85 58.95C26.3802 54.8859 27.0773 50.5556 26.9 46.2167L45.8833 55.75C48.571 57.0089 51.679 57.0089 54.3667 55.75L73.0333 46.2667C72.8514 50.6005 73.5487 54.9263 75.0833 58.9833C85.85 86.4 84.8833 83.9167 85 84.1667ZM73.65 42.2L52.95 52.7167C51.1785 53.5335 49.1381 53.5335 47.3667 52.7167L26.35 42.2C25.9075 40.1295 25.0884 38.1578 23.9333 36.3833C50.5333 45.4833 48.8167 45 50 45C51.1833 45 49.5 45.45 76.0667 36.3667C74.9087 38.1457 74.0894 40.1233 73.65 42.2ZM96.6667 57.3667L82.25 67.9833L78.5667 58.6C81.7381 54.4939 85.4366 50.8235 89.5667 47.6833L96.6667 57.3667ZM92 30C94.05 29.1167 94.0333 29.0833 92 30.1167L96.6667 38.8833C89.3168 42.9963 82.7541 48.3796 77.2833 54.7833C74.15 42.4167 78.5333 33.0333 92 30ZM83.3333 8.33334C79.8167 16.0667 71.5667 22.3333 61.4667 25.1167C61.7307 23.3509 61.6113 21.5489 61.1167 19.8333C69.1626 17.3896 76.6926 13.4918 83.3333 8.33334ZM71.1833 12.1667C67.5246 14.067 63.6899 15.6076 59.7333 16.7667C57.6264 13.457 53.9204 11.5152 50 11.6667C46.1213 11.5109 42.4476 13.4111 40.3333 16.6667C36.3985 15.4678 32.5734 13.9344 28.9 12.0833C34.5096 6.47113 42.124 3.32494 50.059 3.34058C57.994 3.35622 65.5959 6.5324 71.1833 12.1667ZM58.3333 23.3333C58.3333 34.4667 41.8333 34.4667 41.8333 23.3333C41.8333 12.2 58.3333 12.2 58.3333 23.3333ZM16.6667 8.33334C23.3704 13.3938 30.9056 17.246 38.9333 19.7167C38.4112 21.4839 38.2803 23.3437 38.55 25.1667C28.3333 22.45 20 16.1833 16.6667 8.33334ZM39.7 28.8833C41.6247 32.7769 45.6602 35.1734 50 35C54.3572 35.171 58.404 32.752 60.3167 28.8333C66.4847 27.4775 72.2743 24.7677 77.2667 20.9C78.8177 24.2484 79.744 27.852 80 31.5333C48.75 42.2167 50.3 41.85 49.5333 41.5333L20 31.5167C20.2218 27.8967 21.1088 24.3485 22.6167 21.05C27.6534 24.9062 33.4913 27.583 39.7 28.8833ZM7.96667 30C21.3 32.9833 25.8667 42.25 22.7 54.7667C17.2604 48.378 10.6965 43.0399 3.33333 39.0167C8.33333 29.4667 7.91667 30.1833 7.96667 30ZM10.45 47.6667C14.5801 50.8068 18.2785 54.4773 21.45 58.5833L17.7667 67.9667L3.33333 57.4333L10.45 47.6667Z" fill="white"/>
</svg>
